<svg width="500" height="500" viewBox="0 0 500 500" fill="none" xmlns="http://www.w3.org/2000/svg">
<g clip-path="url(#clip0_1_81)">
<path d="M0 496V274L22.4425 274.29C122.069 275.577 201.698 357.55 200.094 457.171L199.765 477.637L199.47 496H0Z" fill="white"/>
<path d="M0 274V496H199.47M0 274L22.4425 274.29C122.069 275.577 201.698 357.55 200.094 457.171L199.47 496M0 274C112.019 275.447 201.55 366.714 199.765 477.637L199.47 496" stroke="white"/>
<path d="M0 215V0H200L194.31 53.2619C184.86 141.728 112.195 210.018 23.3129 213.965L0 215Z" fill="white" stroke="white"/>
<path d="M268.333 29.6928L269.19 1H359.576C371.776 1 383.919 2.67049 395.667 5.96492C456.484 23.0208 497.059 80.3234 492.949 143.354L492.699 147.192C491.11 171.568 483.097 195.089 469.474 215.366L469.049 216L441.358 214.939C342.611 211.154 265.38 128.468 268.333 29.6928Z" fill="white" stroke="white"/>
<path d="M268.009 454.078L269.19 496H358.256C371.325 496 384.325 494.108 396.852 490.382C457.241 472.422 497.262 415.181 493.396 352.296L492.65 340.168C491.09 314.803 483.141 290.245 469.541 268.777L469.049 268L440.627 269.155C342.17 273.157 265.232 355.58 268.009 454.078Z" fill="white" stroke="white"/>
<path d="M404.321 253.405L470 246.356L404.081 239.372C319.506 230.411 252.745 163.477 244.001 78.8798L235.848 0L227.347 79.7739C218.377 163.96 151.951 230.515 67.7834 239.651L6 246.356L67.5369 253.121C151.814 262.386 218.2 329.207 226.914 413.543L235.848 500L244.425 414.427C252.918 329.684 319.64 262.492 404.321 253.405Z" fill="white" stroke="white"/>
</g>
<defs>
<clipPath id="clip0_1_81">
<rect width="500" height="500" fill="white"/>
</clipPath>
</defs>
</svg>
