<svg version="1.1" id="Coin--Streamline-Noto-Emoji" xmlns="http://www.w3.org/2000/svg" xmlns:xlink="http://www.w3.org/1999/xlink" x="0" y="0" viewBox="0 0 32 32" xml:space="preserve" enable-background="new 0 0 128 128" height="32" width="32">
  <desc>
    Coin Streamline Emoji: https://streamlinehq.com
  </desc>
  <g>
    <path d="M1.66 16.645a14.34 14.34 0 1 0 28.68 0 14.34 14.34 0 1 0 -28.68 0" fill="#D68F30" stroke-width="0.25"></path>
    <g>
      <g>
        <path d="M2.635 20.37v1.465c0.15 0.3875 0.3175 0.77 0.5 1.14V20.37h-0.5z" fill="#BC6F00" stroke-width="0.25"></path>
      </g>
      <g>
        <path d="M4.27 23.1275v1.76c0.2 0.2825 0.4075 0.56 0.625 0.8275V23.1275h-0.625z" fill="#BC6F00" stroke-width="0.25"></path>
      </g>
      <g>
        <path d="M6.435 25.4275v1.8975c0.2425 0.2175 0.4925 0.425 0.75 0.625v-2.5225h-0.75z" fill="#BC6F00" stroke-width="0.25"></path>
      </g>
      <g>
        <path d="M9.1 27.175v2.04c0.245 0.135 0.495 0.2625 0.75 0.385v-2.425h-0.75z" fill="#BC6F00" stroke-width="0.25"></path>
      </g>
      <g>
        <path d="M12.1225 28.2875v2.16c0.2475 0.07 0.4975 0.1325 0.75 0.19v-2.35h-0.75z" fill="#BC6F00" stroke-width="0.25"></path>
      </g>
      <g>
        <path d="M15.66 28.6725v2.3025c0.1125 0.0025 0.225 0.0075 0.34 0.0075 0.1375 0 0.275 -0.0075 0.41 -0.01v-2.3h-0.75z" fill="#BC6F00" stroke-width="0.25"></path>
      </g>
      <g>
        <path d="M19.1975 28.27v2.35c0.2525 -0.0575 0.5025 -0.1225 0.75 -0.1925v-2.1575h-0.75z" fill="#BC6F00" stroke-width="0.25"></path>
      </g>
      <g>
        <path d="M22.2125 27.1425v2.4275c0.255 -0.1225 0.505 -0.255 0.75 -0.3925v-2.035h-0.75z" fill="#BC6F00" stroke-width="0.25"></path>
      </g>
      <g>
        <path d="M24.87 25.38v2.525c0.2575 -0.2025 0.5075 -0.41 0.75 -0.63v-1.895h-0.75z" fill="#BC6F00" stroke-width="0.25"></path>
      </g>
      <g>
        <path d="M27.7725 23.0725h-0.625v2.5875c0.2175 -0.27 0.4275 -0.5475 0.625 -0.8325v-1.755z" fill="#BC6F00" stroke-width="0.25"></path>
      </g>
      <g>
        <path d="M29.3975 20.305h-0.5v2.61c0.1825 -0.3775 0.35 -0.765 0.5 -1.1575v-1.4525z" fill="#BC6F00" stroke-width="0.25"></path>
      </g>
    </g>
    <path d="M1.66 15.355a14.34 14.34 0 1 0 28.68 0 14.34 14.34 0 1 0 -28.68 0" fill="#FFF176" stroke-width="0.25"></path>
    <path d="M2.9375 15.355a13.0625 13.0625 0 1 0 26.125 0 13.0625 13.0625 0 1 0 -26.125 0" fill="#F2BC1A" stroke-width="0.25"></path>
    <g>
      <path d="M2.9125 15.855c-0.0925 -1.72 0.205 -3.465 0.805 -5.1 0.625 -1.63 1.5825 -3.1375 2.79 -4.4175C8.9325 3.7725 12.4525 2.285 16 2.2675c3.5475 0.02 7.07 1.505 9.49 4.0725 1.21 1.2775 2.165 2.7875 2.79 4.415 0.6025 1.6375 0.9 3.38 0.805 5.1h-0.05c-0.005 -1.7125 -0.345 -3.42 -1 -5 -0.6525 -1.58 -1.62 -3.03 -2.8225 -4.2425 -1.205 -1.2125 -2.6475 -2.1875 -4.225 -2.845 -1.575 -0.66 -3.2825 -1 -4.99 -1s-3.415 0.34 -4.99 1c-1.5775 0.6575 -3.02 1.6325 -4.225 2.845 -1.205 1.2125 -2.17 2.6625 -2.8225 4.2425 -0.655 1.58 -0.995 3.2875 -1 5h-0.0475z" fill="#E08F00" stroke-width="0.25"></path>
    </g>
    <path d="M16 1.0175c-7.92 0 -14.34 6.42 -14.34 14.34S8.08 29.6975 16 29.6975s14.34 -6.42 14.34 -14.34S23.92 1.0175 16 1.0175zm0 27.4025c-7.215 0 -13.0625 -5.8475 -13.0625 -13.0625C2.9375 8.14 8.785 2.2925 16 2.2925s13.0625 5.8475 13.0625 13.0625S23.215 28.42 16 28.42z" fill="#FFF176" stroke-width="0.25"></path>
    <g>
      <g>
        <path d="m9.4975 5.3375 0.3175 0.9825 1.035 -0.395 0 0.395 -0.8375 0.6075 0.32 0.585 0 0.3975 -0.835 -0.6075 -0.8375 0.6075 0 -0.3975 0.32 -0.585 -0.835 -0.6075 0 -0.395 1.0325 0.395z" fill="#D38200" stroke-width="0.25"></path>
      </g>
      <g>
        <path d="m5.5025 10.9775 0.32 0.9825 1.0325 -0.395 0 0.395 -0.835 0.6075 0.32 0.5875 0 0.395 -0.8375 -0.6075 -0.835 0.6075 0 -0.395 0.32 -0.5875 -0.8375 -0.6075 0 -0.395 1.035 0.395z" fill="#D38200" stroke-width="0.25"></path>
      </g>
      <g>
        <path d="m5.385 17.93 0.32 0.9825 1.0325 -0.395 0 0.395 -0.835 0.6075 0.32 0.5875 0 0.395 -0.8375 -0.6075 -0.835 0.6075 0 -0.395 0.32 -0.5875 -0.8375 -0.6075 0 -0.395 1.035 0.395z" fill="#D38200" stroke-width="0.25"></path>
      </g>
      <g>
        <path d="m9.65 23.45 0.32 0.9825 1.0325 -0.395 0 0.395 -0.835 0.6075 0.32 0.585 0 0.3975 -0.8375 -0.6075 -0.835 0.6075 0 -0.3975 0.32 -0.585 -0.8375 -0.6075 0 -0.395 1.035 0.395z" fill="#D38200" stroke-width="0.25"></path>
      </g>
      <g>
        <path d="m22.5025 5.3375 -0.3175 0.9825 -1.035 -0.395 0 0.395 0.8375 0.6075 -0.32 0.585 0 0.3975 0.835 -0.6075 0.8375 0.6075 0 -0.3975 -0.32 -0.585 0.835 -0.6075 0 -0.395 -1.0325 0.395z" fill="#D38200" stroke-width="0.25"></path>
      </g>
      <g>
        <path d="m26.4975 10.9775 -0.32 0.9825 -1.0325 -0.395 0 0.395 0.835 0.6075 -0.32 0.5875 0 0.395 0.8375 -0.6075 0.835 0.6075 0 -0.395 -0.32 -0.5875 0.8375 -0.6075 0 -0.395 -1.035 0.395z" fill="#D38200" stroke-width="0.25"></path>
      </g>
      <g>
        <path d="m26.615 17.93 -0.32 0.9825 -1.0325 -0.395 0 0.395 0.835 0.6075 -0.32 0.5875 0 0.395 0.8375 -0.6075 0.835 0.6075 0 -0.395 -0.32 -0.5875 0.8375 -0.6075 0 -0.395 -1.035 0.395z" fill="#D38200" stroke-width="0.25"></path>
      </g>
      <g>
        <path d="m22.35 23.45 -0.32 0.9825 -1.0325 -0.395 0 0.395 0.835 0.6075 -0.32 0.585 0 0.3975 0.8375 -0.6075 0.835 0.6075 0 -0.3975 -0.32 -0.585 0.8375 -0.6075 0 -0.395 -1.035 0.395z" fill="#D38200" stroke-width="0.25"></path>
      </g>
    </g>
    <g>
      <g>
        <path d="m22.35 23.0525 0.3175 0.9825 1.035 0 -0.8375 0.6075 0.32 0.9825 -0.835 -0.6075 -0.8375 0.6075 0.32 -0.9825 -0.835 -0.6075 1.0325 0z" fill="#FFF176" stroke-width="0.25"></path>
      </g>
      <g>
        <path d="m26.615 17.535 0.3175 0.9825 1.035 0 -0.8375 0.6075 0.32 0.9825 -0.835 -0.6075 -0.8375 0.6075 0.32 -0.9825 -0.835 -0.6075 1.0325 0z" fill="#FFF176" stroke-width="0.25"></path>
      </g>
      <g>
        <path d="m26.4975 10.5825 0.3175 0.9825 1.035 0 -0.8375 0.6075 0.32 0.9825 -0.835 -0.6075 -0.8375 0.6075 0.32 -0.9825 -0.835 -0.6075 1.0325 0z" fill="#FFF176" stroke-width="0.25"></path>
      </g>
      <g>
        <path d="m22.5025 4.94 0.32 0.9825 1.0325 0 -0.835 0.6075 0.32 0.9825 -0.8375 -0.6075 -0.835 0.6075 0.32 -0.9825 -0.8375 -0.6075 1.035 0z" fill="#FFF176" stroke-width="0.25"></path>
      </g>
    </g>
    <g>
      <g>
        <path d="m16.0125 25.625 0.32 0.9825 1.0325 -0.395 0 0.395 -0.835 0.6075 0.32 0.5875 0 0.395 -0.8375 -0.6075 -0.835 0.6075 0 -0.395 0.32 -0.5875 -0.8375 -0.6075 0 -0.395 1.035 0.395z" fill="#D38200" stroke-width="0.25"></path>
      </g>
      <g>
        <path d="m16.0125 25.1 0.32 0.9825 1.0325 0 -0.835 0.6075 0.32 0.9825 -0.8375 -0.6075 -0.835 0.6075 0.32 -0.9825 -0.8375 -0.6075 1.035 0z" fill="#FFF176" stroke-width="0.25"></path>
      </g>
      <g>
        <path d="m16.0125 3.2225 0.32 0.9825 1.0325 -0.395 0 0.395 -0.835 0.6075 0.32 0.5875 0 0.395 -0.8375 -0.6075 -0.835 0.6075 0 -0.395 0.32 -0.5875 -0.8375 -0.6075 0 -0.395 1.035 0.395z" fill="#D38200" stroke-width="0.25"></path>
      </g>
      <g>
        <path d="m16.0125 2.8275 0.32 0.9825 1.0325 0 -0.835 0.6075 0.32 0.9825 -0.8375 -0.6075 -0.835 0.6075 0.32 -0.9825 -0.8375 -0.6075 1.035 0z" fill="#FFF176" stroke-width="0.25"></path>
      </g>
    </g>
    <g>
      <g>
        <path d="m9.65 23.0525 -0.3175 0.9825 -1.035 0 0.8375 0.6075 -0.32 0.9825 0.835 -0.6075 0.8375 0.6075 -0.32 -0.9825 0.835 -0.6075 -1.0325 0z" fill="#FFF176" stroke-width="0.25"></path>
      </g>
      <g>
        <path d="m5.385 17.535 -0.3175 0.9825 -1.035 0 0.8375 0.6075 -0.32 0.9825L5.385 19.5l0.8375 0.6075 -0.32 -0.9825 0.835 -0.6075 -1.0325 0z" fill="#FFF176" stroke-width="0.25"></path>
      </g>
      <g>
        <path d="m5.5025 10.5825 -0.3175 0.9825 -1.035 0 0.8375 0.6075 -0.32 0.9825 0.835 -0.6075 0.8375 0.6075 -0.32 -0.9825 0.835 -0.6075 -1.0325 0z" fill="#FFF176" stroke-width="0.25"></path>
      </g>
      <g>
        <path d="m9.4975 4.94 -0.32 0.9825 -1.0325 0 0.835 0.6075 -0.32 0.9825 0.8375 -0.6075 0.835 0.6075 -0.32 -0.9825 0.8375 -0.6075 -1.035 0z" fill="#FFF176" stroke-width="0.25"></path>
      </g>
    </g>
    <path d="M23.805 12.05c0 -0.0875 -15.595 0 -15.595 0l-0.14 0.42 0 0.7175c0 0.13 0.105 0.235 0.235 0.235h15.39c0.13 0 0.235 -0.105 0.235 -0.235v-0.6975l-0.125 -0.44z" fill="#D38200" stroke-width="0.25"></path>
    <path d="m23.8275 21.375 -15.5525 0 -1.04 0.5225 0.0125 0.6725c0.0025 0.0725 0.0625 0.1325 0.1375 0.1325l17.2325 0c0.0725 0 0.135 -0.0575 0.1375 -0.1325l0.0125 -0.66 -0.94 -0.535z" fill="#D38200" stroke-width="0.25"></path>
    <g>
      <g>
        <path d="M10.7825 19.33h-0.895c-0.1475 0 -0.2675 -0.465 -0.2675 -0.6125l1.4275 -0.045c0 0.1475 -0.12 0.6575 -0.265 0.6575z" fill="#D38200" stroke-width="0.25"></path>
        <path d="M11.0875 14.5025h-1.5075c-0.1125 0 -0.21 -0.075 -0.2425 -0.1825l-0.1175 -0.9825h2.2075l-0.1 0.9825c-0.03 0.1075 -0.1275 0.1825 -0.24 0.1825z" fill="#D38200" stroke-width="0.25"></path>
        <path d="M9.58 19.6275h1.5075c0.1125 0 0.335 0.07 0.365 0.1775 0 0 -0.0075 0.4675 -0.0075 0.6525s-0.075 0.32 -0.2425 0.32h-1.7375c-0.1675 0 -0.2425 -0.15 -0.2425 -0.32s-0.0075 -0.6475 -0.0075 -0.6475c0.0325 -0.1075 0.2525 -0.1825 0.365 -0.1825z" fill="#D38200" stroke-width="0.25"></path>
      </g>
    </g>
    <g>
      <g>
        <path d="M22.4075 19.33h-0.895c-0.1475 0 -0.2675 -0.465 -0.2675 -0.6125l1.4275 -0.045c0 0.1475 -0.1175 0.6575 -0.265 0.6575z" fill="#D38200" stroke-width="0.25"></path>
        <path d="M22.7125 14.5025h-1.5075c-0.1125 0 -0.21 -0.075 -0.2425 -0.1825l-0.1175 -0.9825h2.2075l-0.1 0.9825c-0.03 0.1075 -0.1275 0.1825 -0.24 0.1825z" fill="#D38200" stroke-width="0.25"></path>
        <path d="M21.205 19.6275h1.5075c0.1125 0 0.335 0.07 0.365 0.1775 0 0 -0.0075 0.4675 -0.0075 0.6525s-0.075 0.32 -0.2425 0.32h-1.7375c-0.1675 0 -0.2425 -0.15 -0.2425 -0.32s-0.0075 -0.6475 -0.0075 -0.6475c0.0325 -0.1075 0.2525 -0.1825 0.365 -0.1825z" fill="#D38200" stroke-width="0.25"></path>
      </g>
    </g>
    <g>
      <g>
        <path d="M18.5325 19.33h-0.895c-0.1475 0 -0.2675 -0.465 -0.2675 -0.6125l1.4275 -0.045c0 0.1475 -0.1175 0.6575 -0.265 0.6575z" fill="#D38200" stroke-width="0.25"></path>
        <path d="M18.8375 14.5025h-1.5075c-0.1125 0 -0.21 -0.075 -0.2425 -0.1825l-0.1175 -0.9825h2.2075l-0.1 0.9825c-0.03 0.1075 -0.1275 0.1825 -0.24 0.1825z" fill="#D38200" stroke-width="0.25"></path>
        <path d="M17.33 19.6275h1.5075c0.1125 0 0.335 0.07 0.365 0.1775 0 0 -0.0075 0.4675 -0.0075 0.6525s-0.075 0.32 -0.2425 0.32h-1.7375c-0.1675 0 -0.2425 -0.15 -0.2425 -0.32s-0.0075 -0.6475 -0.0075 -0.6475c0.0325 -0.1075 0.2525 -0.1825 0.365 -0.1825z" fill="#D38200" stroke-width="0.25"></path>
      </g>
    </g>
    <g>
      <g>
        <path d="M14.6575 19.33h-0.895c-0.1475 0 -0.2675 -0.465 -0.2675 -0.6125l1.4275 -0.045c0 0.1475 -0.1175 0.6575 -0.265 0.6575z" fill="#D38200" stroke-width="0.25"></path>
        <path d="M14.9625 14.5025h-1.5075c-0.1125 0 -0.21 -0.075 -0.2425 -0.1825l-0.1175 -0.9825h2.2075l-0.1 0.9825c-0.03 0.1075 -0.1275 0.1825 -0.24 0.1825z" fill="#D38200" stroke-width="0.25"></path>
        <path d="M13.455 19.6275h1.5075c0.1125 0 0.335 0.07 0.365 0.1775 0 0 -0.0075 0.4675 -0.0075 0.6525s-0.075 0.32 -0.2425 0.32h-1.7375c-0.1675 0 -0.2425 -0.15 -0.2425 -0.32s-0.0075 -0.6475 -0.0075 -0.6475c0.0325 -0.1075 0.2525 -0.1825 0.365 -0.1825z" fill="#D38200" stroke-width="0.25"></path>
      </g>
    </g>
    <path d="M23.9175 11.38c0 -0.0875 -0.045 -0.17 -0.1125 -0.21l-7.795 -4.425 -7.805 4.42c-0.075 0.045 -0.1225 0.1275 -0.1225 0.215l-0.0125 1.0925c0 0.1375 0.1125 0.25 0.25 0.25h15.3575c0.1375 0 0.25 -0.1125 0.25 -0.25l-0.01 -1.0925z" fill="#FFF176" stroke-width="0.25"></path>
    <path d="M21.96 11.0825 16 7.7 10.04 11.0825z" fill="#F2BC1A" stroke-width="0.25"></path>
    <path d="M19.7675 10.67 16 8.53l-3.7675 2.14z" fill="#FFF176" stroke-width="0.25"></path>
    <path d="M23.3475 20.505H8.6525c-0.145 0 -0.2825 0.0625 -0.38 0.17l-1.01 1.1275c-0.07 0.0775 -0.015 0.2 0.09 0.2h17.295c0.1025 0 0.1575 -0.1225 0.09 -0.2L23.725 20.675c-0.095 -0.1075 -0.235 -0.17 -0.3775 -0.17z" fill="#FFF176" stroke-width="0.25"></path>
    <g>
      <g>
        <path d="M22.4075 18.8775h-0.895c-0.1475 0 -0.2675 -0.12 -0.2675 -0.2675V14.615c0 -0.1475 0.12 -0.2675 0.2675 -0.2675h0.895c0.1475 0 0.2675 0.12 0.2675 0.2675v3.9975c0 0.1475 -0.12 0.265 -0.2675 0.265z" fill="#FFF176" stroke-width="0.25"></path>
        <path d="M22.715 14.05h-1.5075c-0.1125 0 -0.21 -0.075 -0.2425 -0.1825l-0.115 -0.3975c-0.0475 -0.16 0.075 -0.32 0.2425 -0.32h1.7375c0.1675 0 0.2875 0.16 0.2425 0.32l-0.115 0.3975c-0.0325 0.1075 -0.1325 0.1825 -0.2425 0.1825z" fill="#FFF176" stroke-width="0.25"></path>
        <path d="M21.205 19.1775h1.5075c0.1125 0 0.21 0.075 0.2425 0.1825l0.115 0.3975c0.0475 0.16 -0.075 0.32 -0.2425 0.32h-1.7375c-0.1675 0 -0.2875 -0.16 -0.2425 -0.32l0.115 -0.3975c0.0325 -0.11 0.1325 -0.1825 0.2425 -0.1825z" fill="#FFF176" stroke-width="0.25"></path>
      </g>
      <g>
        <path d="M10.7825 18.8775h-0.895c-0.1475 0 -0.2675 -0.12 -0.2675 -0.2675V14.615c0 -0.1475 0.12 -0.2675 0.2675 -0.2675h0.895c0.1475 0 0.2675 0.12 0.2675 0.2675v3.9975c-0.0025 0.1475 -0.1225 0.265 -0.2675 0.265z" fill="#FFF176" stroke-width="0.25"></path>
        <path d="M11.0875 14.05h-1.5075c-0.1125 0 -0.21 -0.075 -0.2425 -0.1825l-0.115 -0.3975c-0.0475 -0.16 0.075 -0.32 0.2425 -0.32h1.7375c0.1675 0 0.2875 0.16 0.2425 0.32l-0.115 0.3975c-0.0325 0.1075 -0.13 0.1825 -0.2425 0.1825z" fill="#FFF176" stroke-width="0.25"></path>
        <path d="M9.58 19.1775h1.5075c0.1125 0 0.21 0.075 0.2425 0.1825l0.115 0.3975c0.0475 0.16 -0.075 0.32 -0.2425 0.32h-1.7375c-0.1675 0 -0.2875 -0.16 -0.2425 -0.32l0.115 -0.3975c0.0325 -0.11 0.13 -0.1825 0.2425 -0.1825z" fill="#FFF176" stroke-width="0.25"></path>
      </g>
      <g>
        <path d="M14.6575 18.8775h-0.895c-0.1475 0 -0.2675 -0.12 -0.2675 -0.2675V14.615c0 -0.1475 0.12 -0.2675 0.2675 -0.2675h0.895c0.1475 0 0.2675 0.12 0.2675 0.2675v3.9975c-0.0025 0.1475 -0.12 0.265 -0.2675 0.265z" fill="#FFF176" stroke-width="0.25"></path>
        <path d="M14.9625 14.05h-1.5075c-0.1125 0 -0.21 -0.075 -0.2425 -0.1825l-0.115 -0.3975c-0.0475 -0.16 0.075 -0.32 0.2425 -0.32h1.7375c0.1675 0 0.2875 0.16 0.2425 0.32l-0.115 0.3975c-0.0325 0.1075 -0.13 0.1825 -0.2425 0.1825z" fill="#FFF176" stroke-width="0.25"></path>
        <path d="M13.455 19.1775h1.5075c0.1125 0 0.21 0.075 0.2425 0.1825l0.115 0.3975c0.0475 0.16 -0.075 0.32 -0.2425 0.32h-1.7375c-0.1675 0 -0.2875 -0.16 -0.2425 -0.32l0.115 -0.3975c0.0325 -0.11 0.13 -0.1825 0.2425 -0.1825z" fill="#FFF176" stroke-width="0.25"></path>
      </g>
      <g>
        <path d="M18.5325 18.8775h-0.895c-0.1475 0 -0.2675 -0.12 -0.2675 -0.2675V14.615c0 -0.1475 0.12 -0.2675 0.2675 -0.2675h0.895c0.1475 0 0.2675 0.12 0.2675 0.2675v3.9975c-0.0025 0.1475 -0.12 0.265 -0.2675 0.265z" fill="#FFF176" stroke-width="0.25"></path>
        <path d="M18.8375 14.05h-1.5075c-0.1125 0 -0.21 -0.075 -0.2425 -0.1825l-0.115 -0.3975c-0.0475 -0.16 0.075 -0.32 0.2425 -0.32h1.7375c0.1675 0 0.2875 0.16 0.2425 0.32l-0.115 0.3975c-0.0325 0.1075 -0.13 0.1825 -0.2425 0.1825z" fill="#FFF176" stroke-width="0.25"></path>
        <path d="M17.33 19.1775h1.5075c0.1125 0 0.21 0.075 0.2425 0.1825l0.115 0.3975c0.0475 0.16 -0.075 0.32 -0.2425 0.32h-1.7375c-0.1675 0 -0.2875 -0.16 -0.2425 -0.32l0.115 -0.3975c0.0325 -0.11 0.1325 -0.1825 0.2425 -0.1825z" fill="#FFF176" stroke-width="0.25"></path>
      </g>
    </g>
  </g>
</svg>