<svg xmlns="http://www.w3.org/2000/svg" viewBox="0 0 32 32" id="Bar-Chart--Streamline-Twemoji" height="32" width="32">
  <desc>
    Bar Chart Streamline Emoji: https://streamlinehq.com
  </desc>
  <path fill="#ccd6dd" d="M27.555555555555554 1.7777777777777777H4.444444444444445C2.9715555555555553 1.7777777777777777 1.7777777777777777 2.9715555555555553 1.7777777777777777 4.444444444444445v23.11111111111111c0 1.472888888888889 1.1937777777777776 2.6666666666666665 2.6666666666666665 2.6666666666666665h23.11111111111111c1.472888888888889 0 2.6666666666666665 -1.1937777777777776 2.6666666666666665 -2.6666666666666665V4.444444444444445c0 -1.472888888888889 -1.1937777777777776 -2.6666666666666665 -2.6666666666666665 -2.6666666666666665z" stroke-width="0.8889"></path>
  <path fill="#e1e8ed" d="M27.555555555555554 0.8888888888888888H4.444444444444445C2.4808888888888885 0.8888888888888888 0.8888888888888888 2.4808888888888885 0.8888888888888888 4.444444444444445v23.11111111111111c0 1.9635555555555555 1.5919999999999999 3.5555555555555554 3.5555555555555554 3.5555555555555554h23.11111111111111c1.9635555555555555 0 3.5555555555555554 -1.5919999999999999 3.5555555555555554 -3.5555555555555554V4.444444444444445c0 -1.9635555555555555 -1.5919999999999999 -3.5555555555555554 -3.5555555555555554 -3.5555555555555554zm0 1.7777777777777777c0.9804444444444443 0 1.7777777777777777 0.7973333333333333 1.7777777777777777 1.7777777777777777v3.5555555555555554h-5.333333333333333V2.6666666666666665h3.5555555555555554zm-3.5555555555555554 14.222222222222221h5.333333333333333v5.333333333333333h-5.333333333333333v-5.333333333333333zm0 -1.7777777777777777v-5.333333333333333h5.333333333333333v5.333333333333333h-5.333333333333333zM22.22222222222222 2.6666666666666665v5.333333333333333h-5.333333333333333V2.6666666666666665h5.333333333333333zm-5.333333333333333 7.111111111111111h5.333333333333333v5.333333333333333h-5.333333333333333v-5.333333333333333zm0 7.111111111111111h5.333333333333333v5.333333333333333h-5.333333333333333v-5.333333333333333zM15.11111111111111 2.6666666666666665v5.333333333333333h-5.333333333333333V2.6666666666666665h5.333333333333333zm-5.333333333333333 7.111111111111111h5.333333333333333v5.333333333333333h-5.333333333333333v-5.333333333333333zm0 7.111111111111111h5.333333333333333v5.333333333333333h-5.333333333333333v-5.333333333333333zM2.6666666666666665 4.444444444444445c0 -0.9804444444444443 0.7973333333333333 -1.7777777777777777 1.7777777777777777 -1.7777777777777777h3.5555555555555554v5.333333333333333H2.6666666666666665V4.444444444444445zm0 5.333333333333333h5.333333333333333v5.333333333333333H2.6666666666666665v-5.333333333333333zm0 7.111111111111111h5.333333333333333v5.333333333333333H2.6666666666666665v-5.333333333333333zm1.7777777777777777 12.444444444444443c-0.9804444444444443 0 -1.7777777777777777 -0.7973333333333333 -1.7777777777777777 -1.7777777777777777v-3.5555555555555554h5.333333333333333v5.333333333333333H4.444444444444445zm5.333333333333333 0v-5.333333333333333h5.333333333333333v5.333333333333333h-5.333333333333333zm7.111111111111111 0v-5.333333333333333h5.333333333333333v5.333333333333333h-5.333333333333333zm10.666666666666666 0h-3.5555555555555554v-5.333333333333333h5.333333333333333v3.5555555555555554c0 0.9804444444444443 -0.7973333333333333 1.7777777777777777 -1.7777777777777777 1.7777777777777777z" stroke-width="0.8889"></path>
  <path fill="#5c913b" d="M11.555555555555555 29.333333333333332H6.222222222222221V14.222222222222221c0 -0.9813333333333334 0.7964444444444444 -1.7777777777777777 1.7777777777777777 -1.7777777777777777h1.7777777777777777c0.9813333333333334 0 1.7777777777777777 0.7964444444444444 1.7777777777777777 1.7777777777777777v15.11111111111111z" stroke-width="0.8889"></path>
  <path fill="#3b94d9" d="M25.777777777777775 29.333333333333332h-5.333333333333333V8c0 -0.9813333333333334 0.7964444444444444 -1.7777777777777777 1.7777777777777777 -1.7777777777777777h1.7777777777777777c0.9813333333333334 0 1.7777777777777777 0.7964444444444444 1.7777777777777777 1.7777777777777777v21.333333333333332z" stroke-width="0.8889"></path>
  <path fill="#dd2e44" d="M18.666666666666664 29.333333333333332h-5.333333333333333V20.444444444444443c0 -0.9813333333333334 0.7964444444444444 -1.7777777777777777 1.7777777777777777 -1.7777777777777777h1.7777777777777777c0.9813333333333334 0 1.7777777777777777 0.7964444444444444 1.7777777777777777 1.7777777777777777v8.88888888888889z" stroke-width="0.8889"></path>
</svg>