<svg version="1.1" id="House--Streamline-Noto-Emoji" xmlns="http://www.w3.org/2000/svg" xmlns:xlink="http://www.w3.org/1999/xlink" x="0" y="0" viewBox="0 0 32 32" xml:space="preserve" enable-background="new 0 0 128 128" height="32" width="32">
  <desc>
    House Streamline Emoji: https://streamlinehq.com
  </desc>
  <path d="M4.35655 11.6282V6.322275l-0.4274 0.02605v-3.268l4.1228 -0.02605V6.27275h-0.4274v3.11685Z" fill="#AB5832" stroke-width="0.25"></path>
  <path d="m16.070775 4.9541 -11.841925 11.89925 0.091225 11.00015 23.38935 -0.221525 0.033875 -11.72725Z" fill="#FFF3E1" stroke-width="0.25"></path>
  <path d="m3.785825 25.922425 0.8183 -0.45085V16.590125l-0.760975 0.508175c-0.0026 0 0.0834 8.8241 -0.057325 8.8241Z" fill="#5F4E47" stroke-width="0.25"></path>
  <path d="M27.300275 17.06965v8.347175l0.8183 0.45085V17.37975Z" fill="#5F4E47" stroke-width="0.25"></path>
  <path d="m16.15155 6.22585 -12.311 11.521375v-2.90575l12.32405 -11.672525 11.953975 12.37875V18Z" fill="#BCAA93" stroke-width="0.25"></path>
  <path d="m2.63395 14.3437 -0.721875 1.3317 1.9363 -0.028675s12.079075 -11.748075 12.339675 -11.7585c0.315325 -0.01305 11.9253 11.9644 11.9253 11.9644l1.7174 -0.026075L16.9464 1.9467l-1.891975 -0.125075 -12.420475 12.522075Z" fill="#AB5832" stroke-width="0.25"></path>
  <path d="M0.405775 15.341825c-0.203275 0.247575 -0.0026 0.377875 0.161575 0.377875s2.056175 -0.054725 2.056175 -0.054725l13.0407 -12.688875s0.2997 -0.307525 0.5134 -0.2971c0.231925 0.010425 0.531625 0.304925 0.531625 0.304925l13.10325 12.845225s1.493275 0.005225 1.730425 -0.054725c0.258 -0.062525 0.1277 -0.3075 -0.19025 -0.6489 -0.23455 -0.252775 -13.481125 -13.356025 -13.700025 -13.58275 -0.651525 -0.672375 -0.96945 -1.063275 -1.584475 -1.037225 -0.61765 0.026075 -0.9825 0.482125 -1.600125 1.05025 -0.182425 0.172 -13.976275 13.681775 -14.062275 13.786025Z" fill="#ED6C31" stroke-width="0.25"></path>
  <g>
    <path d="M23.729975 19.9389h2.6712v-2.22295c0 -0.414375 -0.336175 -0.74795 -0.747925 -0.74795h-1.923275v2.9709Z" fill="#A6CFD5" stroke-width="0.25"></path>
    <path d="M22.9273 19.9389V16.968h-2.08485c-0.41435 0 -0.747925 0.336175 -0.747925 0.74795v2.225575h2.832775Z" fill="#A6CFD5" stroke-width="0.25"></path>
    <path d="M22.9273 20.783275H20.094525v2.08485c0 0.41435 0.336175 0.747925 0.747925 0.747925h2.08485V20.783275Z" fill="#A6CFD5" stroke-width="0.25"></path>
    <path d="M23.729975 20.783275v2.832775h1.923275c0.41435 0 0.747925 -0.336175 0.747925 -0.747925v-2.08485H23.729975Z" fill="#A6CFD5" stroke-width="0.25"></path>
  </g>
  <g>
    <path d="M8.9406 19.9389h2.6712v-2.22295c0 -0.414375 -0.336175 -0.74795 -0.747925 -0.74795h-1.923275v2.9709Z" fill="#A6CFD5" stroke-width="0.25"></path>
    <path d="M8.135325 19.9389V16.968H6.0505c-0.414375 0 -0.74795 0.336175 -0.74795 0.74795v2.225575h2.832775Z" fill="#A6CFD5" stroke-width="0.25"></path>
    <path d="M8.135325 20.783275H5.30515v2.08485c0 0.41435 0.3362 0.747925 0.74795 0.747925h2.08485V20.783275Z" fill="#A6CFD5" stroke-width="0.25"></path>
    <path d="M8.9406 20.783275v2.832775h1.923275c0.41435 0 0.747925 -0.336175 0.747925 -0.747925v-2.08485H8.9406Z" fill="#A6CFD5" stroke-width="0.25"></path>
  </g>
  <path d="M12.482225 26.6886s-0.039075 -6.447375 0 -8.076175c0.0391 -1.626175 1.56625 -3.03345 3.33575 -2.9735 2.1891 0.075575 3.3149 1.305625 3.3957 2.892725 0.080775 1.587075 0.080775 8.255975 0.080775 8.255975l-6.812225 -0.099025Z" fill="#D27857" stroke-width="0.25"></path>
  <path d="M13.297925 27.0378s-0.031275 -6.86955 0 -8.141325c0.0391 -1.57665 1.22745 -2.405375 2.608675 -2.3272 1.607925 0.091225 2.402775 0.946 2.465325 2.1891 0.06255 1.240475 0.06255 8.28465 0.06255 8.28465l-5.13655 -0.005225Z" fill="#AB5932" stroke-width="0.25"></path>
  <g>
    <path d="M17.603125 21.4374c-0.0052 -1.131025 -0.015625 -2.12915 -0.031275 -2.434075 -0.041675 -0.8209 -0.62545 -1.459375 -1.759075 -1.498475 -0.914725 -0.031275 -1.667875 0.6828 -1.688725 1.52455 -0.007825 0.310125 -0.005225 1.284775 0 2.39495l3.479075 0.01305Z" fill="#D27857" stroke-width="0.25"></path>
    <path d="M14.131875 22.70655c0.010425 1.5141 0.02345 2.90835 0.02345 2.90835l3.458225 0.010425s0 -1.389025 -0.0052 -2.90315l-3.476475 -0.015625Z" fill="#D27857" stroke-width="0.25"></path>
  </g>
  <path d="M17.61355 22.01855c-0.013025 0.36745 0.135525 0.664525 0.570725 0.664525s0.594175 -0.20325 0.62545 -0.596775c0.026075 -0.351825 -0.2163 -0.66455 -0.62545 -0.638475 -0.40655 0.02865 -0.5603 0.312725 -0.570725 0.570725Z" fill="#FFBA02" stroke-width="0.25"></path>
  <path d="M20.11015 29.1852s2.8354 0.02865 4.88375 -0.031275c2.048375 -0.05995 3.5312 0.031275 3.836125 -0.27625 0.3049 -0.3049 0.2997 -2.90315 -1.1206 -3.606775 -1.30565 -0.6463 -2.15 0.010425 -2.59825 0.054725 -0.591575 0.05995 -1.323875 -0.307525 -1.860725 -0.31795 -2.21775 -0.0469 -2.99435 1.69655 -2.99435 1.69655l-0.14595 2.480975Z" fill="#728037" stroke-width="0.25"></path>
  <path d="M3.14995 28.9715c0.23715 0.2215 2.04835 0.229325 4.23485 0.2137 2.186475 -0.01565 3.94555 0.0052 3.94555 0.0052l0.36485 -2.207325 -0.443025 -0.36745s0.049525 -1.104975 -1.344725 -1.48285c-0.96425 -0.2606 -1.8034 0.1694 -2.613875 0.182425 -0.810475 0.01565 -1.558425 -0.351825 -2.460125 -0.138125 -0.83915 0.198075 -1.49325 0.74535 -1.759075 1.8503 -0.185025 0.766175 -0.138125 1.74345 0.075575 1.944125Z" fill="#728037" stroke-width="0.25"></path>
  <path d="m11.06975 31.49415 0.01825 -2.30635h0.169375l-0.0026 -2.569575h9.050825l-0.03125 2.569575h0.19805v2.246425c-0.0026 -0.0026 -9.40265 0.072975 -9.40265 0.059925Z" fill="#B0B0B0" stroke-width="0.25"></path>
  <path d="M20.4698 30.485625v0.946l-9.40265 0.062525 0.007825 -1.01635Z" fill="#9B9B9B" stroke-width="0.25"></path>
  <path d="m11.252175 28.187075 9.029975 0.0026v0.995525H11.252175Z" fill="#9B9B9B" stroke-width="0.25"></path>
</svg>