<svg viewBox="0 0 32 32" fill="none" xmlns="http://www.w3.org/2000/svg" id="Gear-Flat--Streamline-Fluent-Emoji" height="32" width="32">
  <desc>
    Gear Flat Streamline Emoji: https://streamlinehq.com
  </desc>
  <path d="M12.8472 3.83391C12.9336 2.79732 13.8001 2 14.8403 2h2.3194c1.0402 0 1.9067 0.79732 1.9931 1.83391l0.2354 2.82479c0.0338 0.40503 0.511 0.6027 0.8213 0.34017l2.1639 -1.83098c0.794 -0.6719 1.9705 -0.62296 2.7061 0.11256l1.6401 1.64011c0.7355 0.73552 0.7844 1.91204 0.1125 2.7061l-1.8309 2.16384c-0.2626 0.3103 -0.0649 0.7875 0.3401 0.8213l2.8248 0.2354c1.0366 0.0864 1.8339 0.9529 1.8339 1.9931v2.3194c0 1.0402 -0.7973 1.9067 -1.8339 1.9931l-2.8248 0.2354c-0.405 0.0338 -0.6027 0.511 -0.3401 0.8213l1.8309 2.1638c0.6719 0.7941 0.623 1.9706 -0.1125 2.7061l-1.6401 1.6402c-0.7356 0.7355 -1.9121 0.7844 -2.7061 0.1125l-2.1639 -1.831c-0.3103 -0.2625 -0.7875 -0.0648 -0.8213 0.3402l-0.2354 2.8248C19.0664 29.2027 18.1999 30 17.1597 30h-2.3194c-1.0402 0 -1.9067 -0.7973 -1.9931 -1.8339l-0.2354 -2.8248c-0.0338 -0.405 -0.511 -0.6027 -0.8213 -0.3401l-2.16384 1.8309c-0.79406 0.6719 -1.97058 0.623 -2.7061 -0.1125l-1.64011 -1.6401c-0.73552 -0.7356 -0.78445 -1.9121 -0.11256 -2.7061l1.83099 -2.1639c0.26253 -0.3103 0.06485 -0.7875 -0.34017 -0.8213l-2.8248 -0.2354C2.79732 19.0664 2 18.1999 2 17.1597v-2.3194c0 -1.0402 0.79732 -1.9067 1.83391 -1.9931l2.8248 -0.2354c0.40502 -0.0338 0.60269 -0.511 0.34017 -0.8213L5.16789 9.62664c-0.67189 -0.79406 -0.62296 -1.97058 0.11256 -2.7061l1.64011 -1.64011c0.73552 -0.73552 1.91204 -0.78446 2.7061 -0.11256l2.16384 1.83097c0.3103 0.26253 0.7875 0.06485 0.8213 -0.34017l0.2354 -2.82476ZM21 16c0 -2.7614 -2.2386 -5 -5 -5s-5 2.2386 -5 5 2.2386 5 5 5 5 -2.2386 5 -5Z" fill="#b4acbc" stroke-width="1"></path>
  <path d="M24 16c0 4.4183 -3.5817 8 -8 8s-8 -3.5817 -8 -8 3.5817 -8 8 -8 8 3.5817 8 8Zm-3.5 0c0 -2.4853 -2.0147 -4.5 -4.5 -4.5s-4.5 2.0147 -4.5 4.5 2.0147 4.5 4.5 4.5 4.5 -2.0147 4.5 -4.5Z" fill="#998ea4" stroke-width="1"></path>
  <path d="M10.5 16c0 -3.0376 2.4624 -5.5 5.5 -5.5s5.5 2.4624 5.5 5.5 -2.4624 5.5 -5.5 5.5 -5.5 -2.4624 -5.5 -5.5ZM21 16c0 -2.7614 -2.2386 -5 -5 -5s-5 2.2386 -5 5 2.2386 5 5 5 5 -2.2386 5 -5Z" fill="#cdc4d6" stroke-width="1"></path>
</svg>